<?xml version="1.0" encoding="utf-8"?>
<!-- Generator: Adobe Illustrator 16.0.4, SVG Export Plug-In . SVG Version: 6.00 Build 0)  -->
<!DOCTYPE svg PUBLIC "-//W3C//DTD SVG 1.1//EN" "http://www.w3.org/Graphics/SVG/1.1/DTD/svg11.dtd">
<svg version="1.1" id="Ebene_1" xmlns="http://www.w3.org/2000/svg" xmlns:xlink="http://www.w3.org/1999/xlink" x="0px" y="0px"
	 width="1900px" height="1900px" viewBox="0 0 1900 1900" enable-background="new 0 0 1900 1900" xml:space="preserve">
<rect fill="#FF4136" stroke="#1D1D1B" stroke-miterlimit="10" width="1900" height="1900"/>
<g>
	<path fill="#FFFFFF" d="M638.848,694.473h69.879v510.707h-69.879V694.473z"/>
	<path fill="#FFFFFF" d="M1160.979,709.074c50.024,26.655,80.635,73.355,91.83,140.105h-68.488
		c-8.17-37.313-25.08-64.49-50.73-81.525s-57.988-25.553-97.023-25.553c-46.304,0-85.29,17.73-116.948,53.191
		c-31.664,35.461-47.493,88.305-47.493,158.531c0,60.726,13.059,110.152,39.182,148.275c26.118,38.127,68.706,57.189,127.764,57.189
		c45.195,0,82.617-13.385,112.261-40.154c29.638-26.77,44.81-70.053,45.505-129.85h-159.922v-57.363h224.238v273.258h-44.5
		l-16.688-65.707c-23.032,25.727-43.436,43.576-61.215,53.539c-29.871,17.148-67.831,25.727-113.885,25.727
		c-59.509,0-110.695-19.584-153.555-58.754c-46.738-49.135-70.107-116.579-70.107-202.336c0-85.523,22.842-153.545,68.526-204.074
		c43.402-48.205,99.598-72.312,168.586-72.312C1085.597,681.262,1126.484,690.534,1160.979,709.074z"/>
</g>
</svg>
