<?xml version="1.0" encoding="utf-8"?>
<!-- Generator: Adobe Illustrator 16.0.4, SVG Export Plug-In . SVG Version: 6.00 Build 0)  -->
<!DOCTYPE svg PUBLIC "-//W3C//DTD SVG 1.1//EN" "http://www.w3.org/Graphics/SVG/1.1/DTD/svg11.dtd">
<svg version="1.1" id="Ebene_1" xmlns="http://www.w3.org/2000/svg" xmlns:xlink="http://www.w3.org/1999/xlink" x="0px" y="0px"
	 width="1900px" height="1900px" viewBox="0 0 1900 1900" enable-background="new 0 0 1900 1900" xml:space="preserve">
<rect y="0" fill="#FF4136" stroke="#1D1D1B" stroke-miterlimit="10" width="1900" height="1900"/>
<path display="none" fill="#FFFFFF" d="M597.809,499.234h49.269v360.077h-49.269V499.234z"/>
<path display="none" fill="#FFFFFF" d="M719.367,596.791h41.915v37.258c12.417-15.358,25.573-26.388,39.464-33.091
	c13.887-6.699,29.33-10.05,46.327-10.05c37.258,0,62.42,12.991,75.496,38.974c7.189,14.217,10.785,34.562,10.785,61.034v168.396
	h-44.856V693.857c0-16.013-2.371-28.924-7.108-38.729c-7.844-16.338-22.061-24.512-42.65-24.512
	c-10.459,0-19.039,1.065-25.737,3.187c-12.095,3.596-22.715,10.785-31.865,21.57c-7.354,8.664-12.133,17.61-14.339,26.84
	c-2.206,9.234-3.309,22.428-3.309,39.586v137.511h-44.121V596.791z"/>
<path display="none" fill="#FFFFFF" d="M1019.146,516.638c10.295-15.033,30.149-22.551,59.563-22.551
	c2.777,0,5.638,0.084,8.579,0.245c2.941,0.165,6.288,0.41,10.05,0.735v40.199c-4.627-0.326-7.975-0.528-10.038-0.613
	c-2.068-0.081-4.011-0.123-5.825-0.123c-13.551,0-21.651,3.474-24.294,10.417c-2.643,6.948-3.964,24.634-3.964,53.068h44.121v34.807
	h-44.121v226.488h-43.631V632.823h-36.522v-34.807h36.522v-41.18C1010.236,538.538,1013.424,525.136,1019.146,516.638z"/>
<path display="none" fill="#FFFFFF" d="M1328.238,622.992c23.203,22.532,34.807,55.672,34.807,99.426
	c0,42.291-10.225,77.231-30.67,104.822c-20.444,27.591-52.168,41.387-95.167,41.387c-35.864,0-64.339-12.202-85.435-36.61
	c-21.096-24.409-31.64-57.185-31.64-98.331c0-44.083,11.114-79.184,33.344-105.309c22.229-26.12,52.087-39.184,89.571-39.184
	C1276.638,589.192,1305.032,600.46,1328.238,622.992z M1300.843,797.461c10.747-22.114,16.12-46.722,16.12-73.814
	c0-24.481-3.88-44.393-11.636-59.736c-12.278-24.156-33.446-36.235-63.5-36.235c-26.665,0-46.052,10.283-58.17,30.85
	s-18.177,45.374-18.177,74.424c0,27.913,6.059,51.168,18.177,69.774s31.345,27.909,57.687,27.909
	C1270.265,830.633,1290.096,819.576,1300.843,797.461z"/>
<path display="none" fill="#FFFFFF" d="M225.966,1255.518c1.103,20.428,5.745,37.012,13.93,49.758
	c15.584,23.861,43.052,35.787,82.405,35.787c17.629,0,33.685-2.611,48.169-7.844c28.02-10.129,42.03-28.268,42.03-54.416
	c0-19.609-5.937-33.58-17.809-41.914c-12.034-8.17-30.87-15.277-56.515-21.326l-47.254-11.029
	c-30.87-7.189-52.715-15.113-65.538-23.777c-22.164-15.032-33.244-37.502-33.244-67.406c0-32.355,10.893-58.909,32.677-79.664
	c21.785-20.75,52.635-31.129,92.551-31.129c36.733,0,67.939,9.111,93.624,27.33c25.68,18.223,38.521,47.35,38.521,87.385h-45.837
	c-2.352-19.28-7.365-34.072-15.04-44.367c-14.259-18.789-38.464-28.188-72.616-28.188c-27.576,0-47.396,6.047-59.46,18.139
	c-12.064,12.095-18.093,26.146-18.093,42.16c0,17.648,7.124,30.559,21.375,38.729c9.341,5.231,30.479,11.766,63.413,19.609
	l48.924,11.52c23.592,5.558,41.8,13.156,54.623,22.797c22.167,16.832,33.251,41.264,33.251,73.289
	c0,39.875-14.144,68.389-42.432,85.547s-61.157,25.736-98.606,25.736c-43.669,0-77.852-11.436-102.551-34.316
	c-24.715-22.711-36.825-53.516-36.335-92.408H225.966z"/>
<path display="none" fill="#FFFFFF" d="M685.201,1116.413c17.376,8.743,30.613,20.062,39.709,33.948
	c8.771,13.236,14.615,28.68,17.541,46.328c2.597,12.094,3.899,31.375,3.899,57.848H555.404c0.812,26.709,7.055,48.139,18.729,64.277
	c11.674,16.141,29.751,24.209,54.232,24.209c22.861,0,41.104-7.633,54.723-22.898c7.622-8.863,13.022-19.123,16.201-30.781h43.386
	c-1.145,9.643-4.944,20.387-11.398,32.232c-6.458,11.85-13.658,21.531-21.601,29.047c-13.301,13.074-29.763,21.895-49.383,26.473
	c-10.544,2.611-22.463,3.922-35.76,3.922c-32.478,0-60.004-11.889-82.578-35.664c-22.574-23.777-33.857-57.07-33.857-99.887
	c0-42.16,11.367-76.392,34.106-102.703c22.734-26.309,52.455-39.465,89.161-39.465
	C649.877,1103.299,667.821,1107.674,685.201,1116.413z M701.003,1219.484c-1.785-19.119-5.917-34.396-12.397-45.836
	c-11.992-21.241-32.003-31.865-60.035-31.865c-20.092,0-36.944,7.314-50.555,21.938c-13.612,14.627-20.824,33.213-21.632,55.764
	H701.003z"/>
<path display="none" fill="#FFFFFF" d="M975.656,1123.154c18.545,14.381,29.699,39.138,33.459,74.27h-42.895
	c-2.617-16.178-8.58-29.617-17.894-40.321c-9.314-10.7-24.267-16.056-44.856-16.056c-28.108,0-48.208,13.712-60.299,41.131
	c-7.844,17.789-11.766,39.742-11.766,65.855c0,26.277,5.554,48.393,16.668,66.346c11.11,17.955,28.595,26.93,52.455,26.93
	c18.3,0,32.804-5.572,43.509-16.727c10.701-11.148,18.095-26.406,22.183-45.779h42.895c-4.902,34.807-17.158,60.262-36.768,76.355
	c-19.609,16.096-44.695,24.143-75.25,24.143c-34.316,0-61.689-12.539-82.114-37.625c-20.429-25.082-30.64-56.416-30.64-94.002
	c0-46.082,11.191-81.95,33.581-107.607c22.386-25.652,50.9-38.482,85.546-38.482
	C933.045,1101.584,957.109,1108.776,975.656,1123.154z"/>
<path display="none" fill="#FFFFFF" d="M1062.061,1035.893h44.611v73.289h41.916v36.033h-41.916v171.336
	c0,9.154,3.104,15.281,9.314,18.385c3.432,1.799,9.15,2.695,17.158,2.695c2.123,0,4.412-0.053,6.863-0.16s5.309-0.383,8.58-0.82
	v35.053c-5.068,1.471-10.338,2.531-15.811,3.186c-5.477,0.652-11.398,0.98-17.771,0.98c-20.59,0-34.561-5.27-41.914-15.809
	c-7.354-10.541-11.031-24.225-11.031-41.059v-173.787h-35.541v-36.033h35.541V1035.893z"/>
<path display="none" fill="#FFFFFF" d="M1192.709,1011.625h44.855v50.004h-44.855V1011.625z M1192.709,1110.408h44.855v261.295
	h-44.855V1110.408z"/>
<path display="none" fill="#FFFFFF" d="M1494.447,1135.383c23.203,22.531,34.807,55.672,34.807,99.426
	c0,42.291-10.225,77.23-30.67,104.822c-20.443,27.59-52.168,41.387-95.166,41.387c-35.865,0-64.34-12.203-85.436-36.611
	s-31.639-57.186-31.639-98.33c0-44.082,11.113-79.184,33.344-105.309c22.229-26.12,52.086-39.184,89.57-39.184
	C1442.848,1101.584,1471.242,1112.852,1494.447,1135.383z M1467.053,1309.854c10.746-22.115,16.119-46.723,16.119-73.816
	c0-24.48-3.879-44.393-11.635-59.734c-12.279-24.156-33.447-36.236-63.5-36.236c-26.664,0-46.053,10.283-58.17,30.851
	c-12.119,20.567-18.178,45.374-18.178,74.425c0,27.912,6.059,51.168,18.178,69.773c12.117,18.605,31.344,27.908,57.686,27.908
	C1436.475,1343.023,1456.305,1331.967,1467.053,1309.854z"/>
<path display="none" fill="#FFFFFF" d="M1583.426,1109.182h41.914v37.258c12.418-15.357,25.572-26.388,39.465-33.09
	c13.887-6.699,29.33-10.051,46.326-10.051c37.258,0,62.422,12.992,75.496,38.975c7.189,14.217,10.785,34.561,10.785,61.033v168.396
	h-44.855v-165.455c0-16.013-2.371-28.924-7.109-38.729c-7.844-16.338-22.061-24.512-42.65-24.512
	c-10.459,0-19.039,1.065-25.736,3.188c-12.096,3.596-22.717,10.785-31.865,21.57c-7.354,8.663-12.133,17.609-14.34,26.84
	c-2.205,9.234-3.309,22.428-3.309,39.586v137.512h-44.121V1109.182z"/>
<g>
	<path fill="#FFFFFF" d="M414.245,695.319h68.897v503.534h-68.897V695.319z"/>
	<path fill="#FFFFFF" d="M585.632,831.743h58.614v52.102c17.363-21.477,35.761-36.902,55.187-46.274
		c19.42-9.367,41.015-14.054,64.784-14.054c52.102,0,87.289,18.167,105.574,54.501c10.053,19.881,15.082,48.331,15.082,85.351
		v235.485h-62.728V967.481c0-22.393-3.315-40.447-9.94-54.158c-10.969-22.848-30.85-34.277-59.643-34.277
		c-14.627,0-26.624,1.489-35.991,4.456c-16.914,5.029-31.766,15.082-44.561,30.164c-10.283,12.115-16.968,24.626-20.053,37.533
		c-3.085,12.914-4.627,31.364-4.627,55.358v192.296h-61.699V831.743z"/>
	<path fill="#FFFFFF" d="M1004.843,719.656c14.396-21.021,42.161-31.535,83.294-31.535c3.883,0,7.884,0.118,11.997,0.343
		c4.113,0.23,8.794,0.573,14.054,1.028v56.215c-6.47-0.455-11.15-0.739-14.038-0.857c-2.892-0.112-5.607-0.171-8.146-0.171
		c-18.949,0-30.276,4.858-33.973,14.568c-3.695,9.715-5.543,34.449-5.543,74.21h61.699v48.674h-61.699v316.723h-61.014V882.131
		h-51.073v-48.674h51.073v-57.586C992.385,750.281,996.841,731.541,1004.843,719.656z"/>
	<path fill="#FFFFFF" d="M1437.081,868.382c32.445,31.508,48.674,77.853,48.674,139.038c0,59.139-14.3,108-42.89,146.584
		c-28.589,38.584-72.952,57.875-133.082,57.875c-50.151,0-89.973-17.063-119.473-51.196s-44.244-79.968-44.244-137.506
		c0-61.646,15.543-110.732,46.628-147.264c31.085-36.527,72.839-54.795,125.257-54.795
		C1364.922,821.117,1404.63,836.874,1437.081,868.382z M1398.771,1112.362c15.028-30.925,22.543-65.336,22.543-103.224
		c0-34.234-5.426-62.079-16.271-83.535c-17.17-33.779-46.772-50.671-88.799-50.671c-37.288,0-64.399,14.38-81.345,43.141
		c-16.946,28.761-25.419,63.451-25.419,104.075c0,39.033,8.473,71.555,25.419,97.572c16.945,26.02,43.832,39.028,80.669,39.028
		C1356.01,1158.749,1383.742,1143.287,1398.771,1112.362z"/>
</g>
</svg>
